<?xml version="1.0" encoding="UTF-8" standalone="no"?>
<!-- Generator: Adobe Illustrator 21.0.2, SVG Export Plug-In . SVG Version: 6.00 Build 0)  -->

<svg
   xmlns:dc="http://purl.org/dc/elements/1.1/"
   xmlns:cc="http://creativecommons.org/ns#"
   xmlns:rdf="http://www.w3.org/1999/02/22-rdf-syntax-ns#"
   xmlns:svg="http://www.w3.org/2000/svg"
   xmlns="http://www.w3.org/2000/svg"
   xmlns:sodipodi="http://sodipodi.sourceforge.net/DTD/sodipodi-0.dtd"
   xmlns:inkscape="http://www.inkscape.org/namespaces/inkscape"
   version="1.1"
   id="Logo"
   x="0px"
   y="0px"
   viewBox="0 0 738 250"
   xml:space="preserve"
   inkscape:version="0.91 r13725"
   sodipodi:docname="logo.svg"
   width="738"
   height="250"><metadata
     id="metadata47"><rdf:RDF><cc:Work
         rdf:about=""><dc:format>image/svg+xml</dc:format><dc:type
           rdf:resource="http://purl.org/dc/dcmitype/StillImage" /><dc:title></dc:title></cc:Work></rdf:RDF></metadata><defs
     id="defs45" /><sodipodi:namedview
     pagecolor="#ffffff"
     bordercolor="#666666"
     borderopacity="1"
     objecttolerance="10"
     gridtolerance="10"
     guidetolerance="10"
     inkscape:pageopacity="0"
     inkscape:pageshadow="2"
     inkscape:window-width="1920"
     inkscape:window-height="1017"
     id="namedview43"
     showgrid="false"
     inkscape:zoom="1.44"
     inkscape:cx="398.00365"
     inkscape:cy="126.09568"
     inkscape:window-x="-8"
     inkscape:window-y="-8"
     inkscape:window-maximized="1"
     inkscape:current-layer="Logo" /><style
     type="text/css"
     id="style3">
	.st0{fill:#BE00FF;}
	.st1{fill:#FFFFFF;}
</style><g
     id="g5"
     transform="matrix(0.99996613,0,0,1,-30.99895,-25)"><g
       id="g7"><path
         class="st0"
         d="m 553.3,123.6 c 8.5,0 16.1,3.9 21.1,10 1.5,1.8 2,3.4 3.2,5 1.3,1.7 3.4,2.9 5.8,2.9 6,0 9.2,-6.7 5.9,-11.4 -7.2,-12.4 -20.6,-20.7 -35.9,-20.7 -23,0 -41.6,18.6 -41.6,41.6 0,23 18.6,41.6 41.6,41.6 14.6,0 27.4,-7.5 34.8,-18.9 1.1,-1.3 1.7,-2.9 1.7,-4.6 0,-4 -3.3,-7.2 -7.2,-7.2 -2.5,0 -4.8,1.3 -6.1,3.3 -0.5,0.8 -0.7,1.5 -1.4,2.3 -5,6.6 -12.9,10.9 -21.8,10.9 -15.1,0 -27.3,-12.2 -27.3,-27.3 -0.2,-15.2 12.1,-27.5 27.2,-27.5 z"
         id="path9"
         inkscape:connector-curvature="0"
         style="fill:#be00ff" /><path
         class="st0"
         d="m 675.9,107 c -4.1,0 -8,1.3 -11.5,3.5 -2,1.3 -3.8,2.9 -5.5,4.6 l -0.2,0.2 -0.1,-0.4 c -0.5,-3.4 -3.5,-6.1 -7.1,-6.1 -2.8,0 -5.2,1.6 -6.4,3.9 -1,2 -1,3.7 -1,5.8 l 0,56.5 0,3.3 c 0,4.6 1.3,9.8 7.4,9.8 5.8,0 7.4,-4.9 7.4,-9.5 l 0,-3.1 0,-15.1 c 0,-5.3 0.1,-10.6 0.4,-15.9 0.2,-2.9 0.5,-6.3 1.2,-9.1 1.1,-3.9 2.9,-8.3 6.1,-11 2.2,-1.9 4.7,-3.3 7.6,-3.3 3.6,0 4.3,2.4 8.5,1.5 3.3,-0.7 5.8,-3.6 5.8,-7.1 0,-6 -7.6,-8.5 -12.6,-8.5 z"
         id="path11"
         inkscape:connector-curvature="0"
         style="fill:#be00ff" /><path
         class="st0"
         d="m 769,177.7 0,-60.4 c 0,-1.3 0.1,-2 -0.3,-3.3 -0.9,-3 -3.6,-5.2 -6.9,-5.2 -3.3,0 -6.2,2.3 -7,5.4 -0.4,1.4 -0.3,2.5 -0.3,4 -2.7,-2.8 -5.9,-5.2 -9.4,-7.1 -5.5,-2.9 -11.5,-4.1 -17.7,-4.1 -11.3,0 -20.9,4.1 -28.8,12.1 -8,8 -12,17.8 -12,29.1 0,11.4 3.9,21.3 11.9,29.5 7.8,8 17.5,12.2 28.7,12.2 4.2,0 8.4,-0.6 12.3,-1.9 4.2,-1.3 10.5,-3.7 10.5,-8.9 l 0,0 c 0,-3.7 -3,-6.7 -6.7,-6.7 -2.2,0 -3.4,1.1 -5.3,1.8 -3.1,1.2 -6.4,1.9 -9.9,1.9 -4.8,0 -9.2,-1.2 -13.3,-3.7 -4.2,-2.5 -7.5,-5.9 -9.9,-10.2 -2.4,-4.3 -3.7,-8.8 -3.7,-13.8 0,-4.9 1.3,-9.5 3.7,-13.8 2.4,-4.2 5.6,-7.6 9.8,-10 4.2,-2.4 8.7,-3.6 13.5,-3.6 7.5,0 13.8,2.5 19.1,7.9 4.7,4.8 7.1,10.4 7.7,16.9 l 0.1,0 0,2 c 0,0.3 0,0.6 0,0.9 0,0.2 0,0.4 0,0.6 l 0.2,28.5 c 0,1.7 -0.3,3.5 0.3,5.1 0.9,2.8 3.5,4.8 6.6,4.8 3.2,0 5.9,-2.2 6.7,-5.1 0.2,-1.4 0.1,-3.4 0.1,-4.9 z"
         id="path13"
         inkscape:connector-curvature="0"
         style="fill:#be00ff" /><path
         class="st0"
         d="m 372.4,156 c -1,2.8 -1.6,5 -2.9,7.6 -2.3,4.5 -5.9,8.4 -10.6,11.1 -12.1,7 -27.3,3.7 -35.5,-7.3 l 47,-27.1 4.3,-2.5 c 2.9,-1.7 5.6,-2.8 5.6,-6.9 0,-1.6 -0.6,-3.1 -1.5,-4.2 -12.3,-16.9 -35.7,-22.2 -54.2,-11.5 -14.3,8.2 -21.8,23.6 -20.6,39 l 1.5,8.4 c 0.9,3.2 2.2,6.2 3.9,9.2 11.4,19.8 36.8,26.6 56.6,15.2 9.2,-5.3 18.2,-16 19.5,-26.8 0.9,-6.8 -9,-11.4 -13.1,-4.2 z m -40.8,-28.6 c 10,-5.8 22.2,-4.5 30.7,2.3 l -42.8,24.7 c -1.5,-12.2 0.6,-20.3 12.1,-27 z"
         id="path15"
         inkscape:connector-curvature="0"
         style="fill:#be00ff" /><path
         class="st0"
         d="m 632.6,108.9 c -0.9,-0.1 -2,-0.1 -2.9,-0.1 l -6.6,0 0,-19.4 c 0,-0.7 0,-1.3 -0.1,-2 -0.4,-3.5 -3.5,-6.3 -7.1,-6.3 -3.6,0 -6.7,2.7 -7.1,6.2 -0.1,0.7 -0.1,1.3 -0.1,2 l 0,19.5 c -2.2,0 -4.3,0 -6.5,0 0,0 -0.7,0 -0.8,0.1 -3.2,0.4 -5.7,3.2 -5.7,6.5 0,3.3 2.4,6 5.5,6.5 2.2,0.4 5.3,0.1 7.5,0.1 l 0,58.1 c 0,0.6 0,1.2 0.1,1.9 0.5,3.5 3.5,6.1 7.1,6.1 3.6,0 6.5,-2.6 7.1,-6 0.1,-0.8 0.1,-1.6 0.1,-2.4 l 0,-57.7 6.9,0 c 0.8,0 1.8,0 2.6,-0.1 3.2,-0.5 5.6,-3.2 5.6,-6.5 0.1,-3.3 -2.4,-6 -5.6,-6.5 z"
         id="path17"
         inkscape:connector-curvature="0"
         style="fill:#be00ff" /><path
         class="st0"
         d="m 491.4,156 c -1,2.8 -1.6,5 -2.9,7.6 -2.3,4.5 -5.9,8.4 -10.6,11.1 -12.1,7 -27.3,3.7 -35.5,-7.3 l 47,-27.1 4.4,-2.5 c 2.9,-1.7 5.6,-2.8 5.6,-6.9 0,-1.6 -0.6,-3.1 -1.5,-4.2 -12.3,-16.9 -35.7,-22.2 -54.2,-11.5 -14.2,8.2 -21.8,23.6 -20.6,39 l 1.5,8.4 c 0.9,3.2 2.2,6.2 3.9,9.2 11.4,19.8 36.8,26.6 56.6,15.2 9.2,-5.3 18.2,-16 19.5,-26.8 0.8,-6.8 -9.1,-11.4 -13.2,-4.2 z m -40.8,-28.6 c 10,-5.8 22.2,-4.5 30.7,2.3 l -42.8,24.7 c -1.5,-12.2 0.6,-20.3 12.1,-27 z"
         id="path19"
         inkscape:connector-curvature="0"
         style="fill:#be00ff" /><path
         class="st0"
         d="m 404.5,80.2 c -3.6,0 -6.7,2.7 -7.1,6.2 0,0.4 -0.1,0.6 -0.1,1 l 0,93.5 c 0,0.6 0.1,1.1 0.2,1.6 0.7,3.2 3.6,5.6 7,5.6 3.3,0 6.1,-2.2 7,-5.3 0.2,-0.6 0.3,-1.3 0.3,-1.9 l 0,-93.5 c 0,-0.4 0,-0.8 -0.1,-1.2 -0.7,-3.4 -3.6,-6 -7.2,-6 z"
         id="path21"
         inkscape:connector-curvature="0"
         style="fill:#be00ff" /></g><circle
       class="st0"
       cx="156"
       cy="150"
       r="125"
       id="circle23"
       style="fill:#be00ff" /><g
       id="g25"><circle
         class="st1"
         cx="156.5"
         cy="252.89999"
         r="4.5"
         id="circle27"
         style="fill:#ffffff" /><circle
         transform="matrix(0.5,-0.866,0.866,0.5,-51.657,107.5964)"
         class="st1"
         cx="67.300003"
         cy="98.5"
         id="ellipse29"
         r="4.5"
         style="fill:#ffffff" /><circle
         transform="matrix(0.8661,-0.4999,0.4999,0.8661,-91.7009,60.6501)"
         class="st1"
         cx="67.300003"
         cy="201.5"
         id="ellipse31"
         r="4.5"
         style="fill:#ffffff" /><circle
         transform="matrix(0.866,-0.5001,0.5001,0.866,-16.3512,136.0519)"
         class="st1"
         cx="245.7"
         cy="98.5"
         id="ellipse33"
         r="4.5"
         style="fill:#ffffff" /><circle
         class="st1"
         cx="156.5"
         cy="47.099998"
         r="4.5"
         id="circle35"
         style="fill:#ffffff" /><path
         class="st1"
         d="m 237.7,196.9 c 2.3,-4 7.2,-5.6 11.4,-3.9 l 0,-86 c -4.2,1.7 -9,0.1 -11.4,-3.9 -2.3,-4 -1.3,-9 2.3,-11.8 l -74.5,-43 c -0.6,4.5 -4.4,7.9 -9.1,7.9 -4.6,0 -8.4,-3.4 -9.1,-7.9 L 73,91.3 c 3.5,2.8 4.6,7.8 2.3,11.8 -2.3,4 -7.2,5.6 -11.4,3.9 l 0,86 c 4.2,-1.7 9,-0.1 11.4,3.9 2.3,4 1.3,9 -2.3,11.8 l 74.5,43 c 0.6,-4.5 4.4,-7.9 9.1,-7.9 4.6,0 8.5,3.4 9.1,7.9 l 74.5,-43 c -3.7,-2.8 -4.8,-7.8 -2.5,-11.8 z m -63.6,-13.1 c 8.3,-4.8 14.2,-12.3 17,-20.7 4.4,-12.9 24.3,-5.7 16.9,11.1 -0.1,0.2 -0.1,0.3 -0.2,0.5 l 24.5,14.1 c 2.1,1.2 2.8,3.9 1.6,6 -1.2,2.1 -3.9,2.8 -6,1.6 l -24.3,-14 c -4.8,7.4 -11.2,13.9 -19.4,18.6 -7.3,4.2 -14.9,6.7 -22.9,7.5 l 0,26.5 c 0,2.4 -2.1,4.4 -4.5,4.4 -2.4,0 -4.5,-2 -4.5,-4.4 l 0,-26.4 c -17,-0.9 -34.5,-9.7 -45.1,-25.1 l -22.1,12.8 c -2.1,1.2 -4.8,0.5 -6,-1.6 -1.2,-2.1 -0.5,-4.8 1.6,-6 L 102.8,176 c -1.5,-3 -2.6,-6.1 -3.6,-9.2 L 97.1,155 c -0.8,-10.6 1.4,-21.3 6.2,-30.7 l -22.6,-13 c -2.1,-1.2 -2.8,-3.9 -1.6,-6 1.2,-2.1 3.9,-2.8 6,-1.6 l 22.7,13.1 c 4.7,-6.5 10.8,-12.2 18.2,-16.4 8.3,-4.8 17.3,-7.3 26.3,-7.7 l 0,-27.7 c 0,-2.4 2.1,-4.4 4.5,-4.4 2.4,0 4.5,2 4.5,4.4 l 0,27.9 c 16,1.7 32,10.5 41.9,25.2 L 228,103.7 c 2.1,-1.2 4.7,-0.5 5.9,1.6 1.2,2.1 0.5,4.8 -1.6,6 l -33.8,19.5 c -0.1,0.1 -0.3,0.2 -0.4,0.2 l -8,4.6 -16.7,9.7 -49,28.3 c 11.4,15.3 32.7,19.9 49.7,10.2 z"
         id="path37"
         inkscape:connector-curvature="0"
         style="fill:#ffffff" /><circle
         transform="matrix(0.5,-0.866,0.866,0.5,-51.6619,313.468)"
         class="st1"
         cx="245.7"
         cy="201.5"
         id="ellipse39"
         r="4.5"
         style="fill:#ffffff" /><path
         class="st1"
         d="m 135.9,117.5 c -16.4,9.5 -18.5,21.4 -18.1,38.5 l 61,-35.2 c -11.9,-9.6 -28.9,-11.3 -42.9,-3.3 z"
         id="path41"
         inkscape:connector-curvature="0"
         style="fill:#ffffff" /></g></g></svg>